<svg xmlns="http://www.w3.org/2000/svg" width="15.09" height="14.796" viewBox="0 0 15.09 14.796">
  <g id="man" transform="translate(-0.374 221.874)">
    <path id="Path_2" data-name="Path 2" d="M7.068-221.809a.951.951,0,0,0-.121.261c-.074.248-.154.328-.529.516a2.677,2.677,0,0,0-1.554,1.775,4.594,4.594,0,0,0-.08,1.373c.027.884.02.958-.094,1-.288.087-.409.69-.228,1.119a23.69,23.69,0,0,0,1.46,2.338l.328.449-.322.476c-.415.61-.616.71-2.472,1.172a9.508,9.508,0,0,0-1.722.529,2.4,2.4,0,0,0-1.119,1.635c-.033.208-.114.616-.174.9-.094.482-.094.529.013.764.214.449-.181.429,7.469.429,7.677,0,7.242.027,7.463-.442.1-.214.1-.275.007-.75-.06-.281-.141-.69-.174-.9a2.379,2.379,0,0,0-1.246-1.695,15.242,15.242,0,0,0-1.681-.489c-1.695-.422-2.01-.569-2.4-1.1l-.295-.409.281-.322a20.155,20.155,0,0,0,1.648-2.666.9.9,0,0,0-.087-.911c-.161-.154-.161-.2-.188-1.32a3.774,3.774,0,0,0-.188-1.561,4.221,4.221,0,0,0-2.492-1.956C7.892-221.856,7.188-221.949,7.068-221.809Zm1.454,3.845a6.045,6.045,0,0,0,1.621.255l.65.013-.033.167c-.027.094-.08.335-.134.543s-.094.4-.094.422a.783.783,0,0,0,.335.04c.6,0,.549.234-.342,1.722a5.449,5.449,0,0,1-1.588,1.949,1.451,1.451,0,0,1-.951.181c-.61,0-.656-.013-.991-.221a4.989,4.989,0,0,1-1.454-1.789c-.677-1.079-.864-1.46-.811-1.668.04-.167.295-.308.556-.308.154,0,.167-.02.134-.221a3.872,3.872,0,0,1-.074-1.186c.033-.007.214-.047.4-.1A6.081,6.081,0,0,1,8.521-217.963ZM6.753-212.6a2.438,2.438,0,0,0,1.233.368,2.813,2.813,0,0,0,1.179-.315c.087-.054.188-.08.221-.06a4.05,4.05,0,0,1,.375.489c.295.415.308.462.268.75a8.515,8.515,0,0,1-1.038,2.639,11.936,11.936,0,0,1-.563-2.117c.054-.141.08-.141.435.02.409.181.556.167.757-.074a.656.656,0,0,0,.174-.476c0-.295-.221-.723-.375-.723a4.632,4.632,0,0,0-.71.275c-.851.375-.878.382-1.427.1a4.1,4.1,0,0,0-.677-.281c-.188-.033-.214-.013-.315.194a.926.926,0,0,0,.02.9c.127.214.127.214.415.127a3.955,3.955,0,0,0,.489-.188c.194-.107.2-.1.268.067.06.147.027.355-.214,1.179-.154.549-.3,1.012-.315,1.032a10.731,10.731,0,0,1-1.045-2.552l-.127-.529.348-.5a4.994,4.994,0,0,1,.362-.5A2.673,2.673,0,0,1,6.753-212.6Z" transform="translate(0 0)"/>
  </g>
</svg>
