<svg xmlns="http://www.w3.org/2000/svg" width="15.163" height="17.536" viewBox="0 0 15.163 17.536">
  <g id="woman" transform="translate(-23 216.013)">
    <path id="Path_3" data-name="Path 3" d="M52.408-215.817a3.406,3.406,0,0,0-2.465,2.753,13.774,13.774,0,0,0-.246,2.516,6.925,6.925,0,0,1-.508,3.134,1.865,1.865,0,0,1-.779.83c-.195.085.432.542,1.059.779a7.668,7.668,0,0,0,1.474.322c.559.059.872.127.872.195,0,.085.788,2.457,1.728,5.2l.28.8.169-.466c.212-.559,1.66-4.794,1.83-5.337l.119-.381.712-.059a5.356,5.356,0,0,0,2.262-.669l.449-.254-.39-.347c-.822-.72-.983-1.389-.915-3.761a7.432,7.432,0,0,0-.136-2.431,3.158,3.158,0,0,0-.856-1.753,2.3,2.3,0,0,0-1.533-.593.575.575,0,0,1-.424-.144,1.964,1.964,0,0,0-.542-.33A3,3,0,0,0,52.408-215.817Z" transform="translate(-23.224)"/>
    <path id="Path_4" data-name="Path 4" d="M26.786-85.361a18,18,0,0,0-1.872,1.008,2.979,2.979,0,0,0-1.4,1.77A16.122,16.122,0,0,0,23-79.72v.33H38.163v-.254A12.443,12.443,0,0,0,37.4-83.2c-.364-.712-1.372-1.415-3.21-2.236L33.157-85.9l.44.483a5.847,5.847,0,0,1,1.135,1.686l.11.322-.5.051a1.719,1.719,0,0,0-.551.1,1.094,1.094,0,0,0,.085.474l.127.432-1.7,1.135-1.7,1.144-1.3-.889c-.72-.491-1.474-1.008-1.669-1.152l-.373-.254.119-.44c.068-.237.119-.44.119-.457a4.7,4.7,0,0,0-.551-.017c-.381,0-.551-.034-.551-.11a5.633,5.633,0,0,1,1.381-2.16c.195-.195.313-.356.271-.347S27.43-85.658,26.786-85.361Z" transform="translate(0 -119.088)"/>
  </g>
</svg>
