<svg xmlns="http://www.w3.org/2000/svg" width="12.078" height="12.071" viewBox="0 0 12.078 12.071">
  <g id="_1906924" data-name="1906924" transform="translate(-96.107 415.765)">
    <path id="Path_1" data-name="Path 1" d="M96.934-415.713a1.218,1.218,0,0,0-.824,1.236c.038.461.011.431,2.257,2.68l2.064,2.072-2.064,2.068a23.989,23.989,0,0,0-2.155,2.261,1.38,1.38,0,0,0,0,1.021,1.33,1.33,0,0,0,.586.586,1.4,1.4,0,0,0,1.021,0,22.12,22.12,0,0,0,2.261-2.151l2.068-2.064,2.072,2.064a21.923,21.923,0,0,0,2.257,2.151,1.4,1.4,0,0,0,1.021,0,1.33,1.33,0,0,0,.586-.586,1.4,1.4,0,0,0,0-1.021,24.062,24.062,0,0,0-2.155-2.261l-2.064-2.068,2.064-2.072c2.325-2.329,2.242-2.227,2.242-2.767a.922.922,0,0,0-.091-.51,1.33,1.33,0,0,0-.586-.586,1.38,1.38,0,0,0-1.021,0,23.754,23.754,0,0,0-2.257,2.155l-2.072,2.064-2.068-2.064a22.3,22.3,0,0,0-2.261-2.151A1.362,1.362,0,0,0,96.934-415.713Z" transform="translate(0 0)"/>
  </g>
</svg>
